<?xml version="1.0" standalone="no"?>
<!DOCTYPE svg PUBLIC "-//W3C//DTD SVG 20010904//EN"
 "http://www.w3.org/TR/2001/REC-SVG-20010904/DTD/svg10.dtd">
<svg version="1.0" xmlns="http://www.w3.org/2000/svg"
 width="800.000000pt" height="800.000000pt" viewBox="0 0 800.000000 800.000000"
 preserveAspectRatio="xMidYMid meet">
<metadata>
Created by potrace 1.14, written by Peter Selinger 2001-2017
</metadata>
<g transform="translate(0.000000,800.000000) scale(0.100000,-0.100000)"
fill="#000000" stroke="none">
<path d="M2139 7184 c-15 -5 -73 -167 -85 -239 -2 -16 -7 -36 -10 -44 -25 -70
-25 -379 -1 -481 2 -8 9 -42 16 -75 7 -33 18 -66 23 -72 11 -14 0 -36 -47 -88
-62 -69 -155 -223 -209 -347 -41 -94 -81 -252 -93 -371 -12 -127 -6 -389 13
-537 14 -108 49 -272 73 -341 l19 -56 -252 1 c-340 0 -582 -11 -836 -40 -176
-20 -188 -21 -235 -29 -22 -3 -53 -8 -70 -11 -16 -3 -55 -9 -85 -14 -115 -21
-117 -21 -106 -39 4 -5 16 -8 29 -6 12 3 56 11 97 19 41 8 93 17 115 20 22 3
72 9 110 15 264 37 518 53 885 55 319 3 359 0 367 -23 6 -16 43 -102 48 -111
2 -3 -11 -6 -28 -6 -33 -1 -271 -13 -342 -18 -88 -6 -422 -43 -462 -50 -12 -3
-43 -7 -70 -11 -135 -19 -413 -71 -503 -95 -19 -5 -50 -12 -68 -15 -18 -3 -51
-12 -75 -19 -23 -8 -54 -17 -69 -20 -17 -4 -25 -11 -22 -19 4 -10 33 -6 134
20 122 30 376 84 465 98 54 8 95 14 125 20 30 5 69 10 230 30 201 24 348 36
622 50 l76 3 63 -96 c152 -234 407 -424 718 -536 129 -47 362 -106 475 -121
23 -4 50 -8 61 -9 11 -2 48 -7 82 -11 l62 -7 -59 -55 c-91 -84 -177 -231 -195
-333 -3 -19 -7 -35 -8 -35 -115 -61 -289 -100 -414 -91 -220 14 -366 107 -506
321 -72 111 -111 155 -187 217 -61 49 -152 95 -226 113 -108 27 -232 3 -242
-48 -5 -25 53 -82 120 -117 163 -86 249 -176 358 -375 137 -251 300 -387 530
-444 133 -33 325 -32 515 3 l30 5 0 -254 c0 -139 -3 -256 -5 -259 -3 -3 -41
-12 -85 -21 -44 -10 -89 -19 -100 -22 -11 -2 -30 -6 -43 -9 -37 -8 -192 -51
-267 -74 -321 -100 -570 -261 -645 -416 -34 -69 -34 -179 0 -249 30 -62 135
-169 220 -224 121 -79 315 -161 515 -220 81 -23 269 -69 322 -77 19 -3 45 -8
57 -10 137 -29 348 -54 596 -71 143 -10 601 -10 730 0 168 13 329 29 400 41
14 3 43 7 65 10 164 22 527 106 615 143 8 3 20 7 25 9 31 8 159 60 224 92 175
83 306 190 361 294 83 155 20 322 -174 460 -193 137 -537 261 -921 332 -11 2
-38 6 -60 10 l-40 8 -1 396 c0 219 -3 424 -8 457 -21 173 -83 302 -198 418
-43 43 -72 77 -65 76 6 -2 35 1 62 5 28 3 68 9 90 12 22 2 65 9 95 14 30 6 69
13 85 15 248 44 521 148 697 265 146 98 307 283 372 428 l19 42 101 -5 c196
-9 484 -31 536 -40 14 -2 52 -7 84 -10 33 -3 73 -8 90 -10 92 -13 193 -28 211
-31 11 -2 34 -6 50 -8 100 -13 422 -82 537 -115 54 -16 68 -17 72 -6 5 15 -32
28 -189 65 -105 25 -305 67 -355 75 -19 3 -60 10 -90 15 -30 5 -75 12 -100 15
-25 3 -76 10 -115 15 -38 5 -92 12 -120 16 -27 3 -61 7 -75 9 -14 2 -65 7
-115 10 -49 4 -103 8 -118 10 -30 4 -226 15 -319 19 -32 1 -60 5 -63 7 -3 3 4
33 16 66 20 60 21 61 62 65 60 6 656 1 752 -6 44 -4 112 -9 150 -11 39 -3 88
-7 110 -10 22 -2 65 -7 95 -10 60 -6 195 -23 226 -29 10 -2 44 -7 74 -12 30
-4 57 -8 60 -9 3 -1 25 -5 50 -9 25 -5 53 -10 63 -12 9 -1 17 3 17 11 0 17 -4
18 -135 40 -29 6 -304 44 -350 50 -22 3 -74 7 -115 11 -41 3 -93 7 -115 9
-113 12 -371 19 -628 18 -272 0 -287 1 -282 17 3 10 8 28 10 39 3 12 7 31 10
44 37 164 50 330 50 622 0 276 -12 357 -77 544 -51 147 -164 339 -260 442 -68
73 -69 75 -59 101 5 14 12 40 15 59 3 19 9 52 13 74 4 22 7 99 8 170 0 118 -3
160 -21 265 -9 54 -53 201 -72 240 l-17 35 -73 1 c-93 2 -251 -32 -357 -76
-132 -55 -299 -144 -450 -238 l-50 -32 -150 30 c-82 16 -177 32 -210 35 -33 3
-78 8 -100 11 -97 14 -482 20 -580 9 -22 -2 -69 -7 -105 -10 -63 -5 -194 -23
-235 -31 -11 -2 -33 -6 -50 -9 -59 -10 -131 -26 -187 -42 l-57 -16 -128 80
c-213 133 -462 246 -589 269 -16 3 -45 9 -64 13 -39 9 -156 12 -181 5z m1889
-4058 c8 -13 11 -845 3 -847 -3 -1 -24 -2 -47 -3 l-41 -1 1 421 c1 322 4 424
14 436 13 17 57 13 70 -6z m-468 -471 c0 -217 -3 -395 -7 -396 -5 0 -29 -3
-55 -5 l-48 -5 0 275 c0 331 11 407 73 499 10 15 23 27 28 27 5 0 9 -158 9
-395z m912 324 c47 -90 58 -179 58 -469 0 -241 -1 -258 -17 -255 -10 2 -35 4
-55 4 l-38 1 0 391 c0 294 3 390 12 387 6 -2 24 -29 40 -59z"/>
<path d="M1617 3520 c-18 -48 -57 -203 -57 -224 0 -47 59 -82 97 -58 6 4 16
19 22 34 8 22 3 51 -23 145 -19 65 -36 111 -39 103z"/>
</g>
</svg>
